<svg width="718" height="296" viewBox="0 0 718 296" fill="none" xmlns="http://www.w3.org/2000/svg">
<path d="M677.689 269.626L640.673 207.643L612.74 264.651L677.689 269.626Z" fill="#1C538E" fill-opacity="0.21"/>
<path d="M521.746 0.770996L488.435 58.4962L543.225 61.6122L521.746 0.770996Z" fill="#1C538E" fill-opacity="0.21"/>
<path d="M128.56 97.5611L189.005 90.667L182.652 25.0744L122.207 31.9685L128.56 97.5611Z" fill="#1C538E" fill-opacity="0.21"/>
<path d="M157.627 3.85497L131.877 69.682L192.539 97.6239L218.288 31.7969L157.627 3.85497Z" fill="#1C538E" fill-opacity="0.21"/>
<path d="M332.141 295.562C341.902 295.401 350.414 288.919 355.228 279.703C359.972 270.622 360.729 259.377 355.685 250.488C350.851 241.968 341.359 238.794 332.141 239.019C323.329 239.233 315.092 243.523 310.358 251.592C305.226 260.338 303.286 271.349 307.81 280.483C312.55 290.051 322.132 295.726 332.141 295.562Z" fill="#1C538E" fill-opacity="0.21"/>
<path d="M628.626 28.1946L561.772 77.1283L606.866 149.675L673.719 100.742L628.626 28.1946Z" fill="#1C538E" fill-opacity="0.21"/>
<path d="M538.431 238.028L561.912 164.026L493.717 138.545L470.236 212.547L538.431 238.028Z" fill="#1C538E" fill-opacity="0.21"/>
<path d="M237.096 156.142L166.004 139.744L150.893 216.891L221.985 233.289L237.096 156.142Z" fill="#1C538E" fill-opacity="0.21"/>
</svg>
