<svg width="25" height="24" viewBox="0 0 25 24" fill="none" xmlns="http://www.w3.org/2000/svg">
<path d="M23.5389 3.37072L11.4885 15.188L6.87859 10.3104C6.71684 10.1518 6.47421 10.1518 6.31246 10.2707C6.15071 10.3897 6.15071 10.6673 6.27202 10.8259L11.2054 16.0207C11.2863 16.1 11.3672 16.1397 11.4885 16.1397C11.6098 16.1397 11.6907 16.1 11.7716 16.0207L24.1051 3.92589C24.2668 3.76727 24.2264 3.48968 24.0646 3.37072C23.9029 3.25175 23.7007 3.25175 23.5389 3.37072Z" fill="#2C3847"/>
<path d="M4.97745 23.6743H19.535C22.0017 23.6743 23.9832 21.7312 23.9832 19.3122V11.4209C23.9832 11.1829 23.8214 11.0243 23.5788 11.0243C23.3362 11.0243 23.1744 11.1829 23.1744 11.4209V19.3122C23.1744 21.295 21.5569 22.8812 19.535 22.8812H4.97745C2.95556 22.8812 1.33805 21.295 1.33805 19.3122V5.03639C1.33805 3.05363 2.95556 1.46742 4.97745 1.46742H18.0388C18.2815 1.46742 18.4432 1.3088 18.4432 1.07087C18.4432 0.832937 18.2815 0.674316 18.0388 0.674316H4.97745C2.51075 0.674316 0.529297 2.61742 0.529297 5.03639V19.3122C0.529297 21.7312 2.51075 23.6743 4.97745 23.6743Z" fill="#2C3847"/>
</svg>
