<svg width="70" height="73" viewBox="0 0 70 73" fill="none" xmlns="http://www.w3.org/2000/svg">
<path d="M48.6117 45.278C49.2133 45.8642 49.8203 45.1642 49.8203 45.1642C49.8203 45.1642 59.9265 34.0211 60.5828 33.5203C61.507 32.8203 63.4867 31.7219 65.4664 33.8447C66.2922 34.7268 67.6375 36.6902 65.1383 39.8544C64.5968 40.5374 48.8523 57.804 47.9336 58.7374C47.9336 58.7374 40.6601 66.1016 36.2578 68.8731C35.0383 69.6414 33.6656 70.4553 32.0633 71.0244C30.4664 71.5935 28.6617 71.9862 26.7586 71.9862C24.8554 72.0089 22.8812 71.6276 21.0164 70.9162C19.1515 70.1992 17.4125 69.1577 15.832 67.9569C15.4437 67.6496 15.05 67.3423 14.6836 67.0122L13.6226 66.1016C12.8981 65.4644 12.201 64.7941 11.5336 64.0927C10.2047 62.7154 9.007 61.2414 7.95154 59.7333C6.90154 58.2195 6.01013 56.6544 5.29919 55.0951C4.58826 53.5358 4.0906 51.9707 3.78982 50.491C3.47263 49.0171 3.38513 47.6227 3.43435 46.4049C3.44529 45.187 3.68044 44.1455 3.87185 43.3146C4.0906 42.4837 4.32576 41.8634 4.51169 41.4536C4.69216 41.0439 4.7906 40.8276 4.7906 40.8276C5.04216 40.0935 5.28279 39.3935 5.49607 38.7618C6.30125 36.3898 7.12341 34.0242 7.96247 31.665L7.95701 31.6821C10.6094 24.187 13.4586 16.4642 13.4586 16.4642C13.8906 15.104 15.482 14.6317 16.6523 15.5081C20.032 18.0349 21.0656 21.7227 19.8734 25.6553L16.8164 34.374C16.3843 35.3471 17.5765 36.474 18.375 35.7967C20.8851 33.6683 26.1953 27.8008 26.1953 27.8008C28.5687 25.4333 41.9617 11.1431 42.8586 10.2723C44.6633 8.52518 46.9383 7.62599 48.6719 8.95201C50.4437 10.3065 50.9359 12.4008 49.2242 14.6886C48.7593 15.3089 35.2242 30.191 35.2242 30.191C34.4367 31.0504 35.3664 32.2683 36.2359 31.4317C36.2359 31.4317 53.0742 13.152 53.8343 12.2984C55.557 10.352 58.3242 9.92518 59.9648 11.5301C61.5672 13.0951 61.5289 15.6618 59.7789 17.6764C59.2211 18.3138 47.3594 31.3463 42.6125 36.6845C42.2953 37.0431 42.0492 37.5211 42.5195 37.9707C42.525 37.9764 43.0008 38.5114 43.6133 37.8284C44.9039 36.3943 57.7937 22.4171 58.5101 21.6601C60.1562 19.9187 62.3656 19.0935 64.1429 20.7894C65.7617 22.3317 66.0242 25.0236 64.1648 26.9244L48.5515 44.1C48.5515 44.1 48.0429 44.726 48.6117 45.278Z" fill="#3399FF"/>
<path d="M23.264 30.9594L21.946 32.4276C21.946 32.4276 29.4875 40.0024 24.3468 51.635C24.3468 51.635 23.6796 53.1089 24.5546 53.3537C24.5546 53.3537 25.3203 53.7976 26.1953 51.5325C26.1953 51.5268 31.3851 40.4805 23.264 30.9594Z" fill="#1D69B5"/>
</svg>
