<svg width="453" height="538" viewBox="0 0 453 538" fill="none" xmlns="http://www.w3.org/2000/svg">
<path d="M-5.4248 53.3261C11.9323 27.2921 62.9328 -31.4226 128.077 -58.0105M469.865 118.134C443.645 108.163 382.341 86.0069 346.888 77.1443C302.572 66.0661 274.321 -23.6679 407.823 -98.4461M461.002 354.655C447.707 398.229 402.505 464.551 299.248 401.183M471.527 437.188C461.371 453.621 424.22 483.273 356.859 470.423M277.09 470.423C305.157 495.533 389.21 552.623 461.002 513.628M160.761 459.898C159.283 477.254 176.604 519.721 257.702 550.74M111.459 562.372C96.8715 541.877 63.7083 492.69 47.7545 459.898C27.8123 418.909 -5.4248 164.663 111.459 118.134" stroke="#E2EDFF" stroke-width="2.21565"/>
</svg>
